# xmcd
#
# Track frame offsets:
#	150
#	13455
#	28890
#	44777
#	61477
#	79500
#	93347
#	107950
#	124700
#	142412
#	153737
#	165817
#	184642
#	199317
#
# Disc length: 2940 seconds
# Revision: 0
# Processed by: cddbd v1.5.2PL0 Copyright (c) Steve Scherf et al.
# Submitted via: dBpowerAMP V12.0
#
DISCID=cb0b7a0e
DTITLE=Debby McClatchy - 'til the Good Times Come
DYEAR=1997
DGENRE=Folk
TTITLE0=Baby Rose
TTITLE1=It's My Lazy Day
TTITLE2=The Winding Stream
TTITLE3=California Humbugs
TTITLE4=Colorado Song
TTITLE5=It Was Silent So I Gave It Away
TTITLE6=Honey, It Must Be Love
TTITLE7=The Spell of the Yukon
TTITLE8=Carolina Mountain Home
TTITLE9=The Day the Yuba Ran High
TTITLE10=Malakey Waits
TTITLE11=Roll Along Kentucky Moon
TTITLE12=I'm Going Back to Dixie
TTITLE13=The Little Black Train
EXTD=
EXTT0=
EXTT1=
EXTT2=
EXTT3=
EXTT4=
EXTT5=
EXTT6=
EXTT7=
EXTT8=
EXTT9=
EXTT10=
EXTT11=
EXTT12=
EXTT13=
PLAYORDER=
